<svg width="191" height="43" viewBox="0 0 191 43" fill="none" xmlns="http://www.w3.org/2000/svg">
<path fill-rule="evenodd" clip-rule="evenodd" d="M22.5444 7.14063C20.2729 6.19974 17.8155 5.79402 15.3622 5.9548C12.9088 6.11563 10.5253 6.83864 8.39612 8.06792L6.24781 9.30824L3.76717 5.01167L5.91548 3.77135C8.70375 2.16157 11.825 1.21473 15.0377 1.00418C18.2504 0.793591 21.4685 1.3249 24.443 2.55698C27.4175 3.78909 30.0688 5.68892 32.1916 8.10956C34.3143 10.5302 35.8519 13.4067 36.6854 16.5166C37.5185 19.6265 37.6254 22.8864 36.9972 26.0442C36.369 29.2019 35.023 32.1729 33.0629 34.7272C31.1028 37.2815 28.5817 39.3507 25.6941 40.7746C22.8066 42.1985 19.082 42.9392 16.4105 42.9392C13.7389 42.9392 12.179 42.5385 10.1304 41.6901C8.13939 40.8654 6.33036 39.6568 4.80648 38.1329C3.28265 36.609 2.07389 34.7997 1.24917 32.8087C0.424495 30.8178 0 28.6839 0 26.5289C0 24.3738 0.424495 22.2399 1.24917 20.2489C2.07389 18.2579 3.28265 16.4488 4.80648 14.925C6.33036 13.4011 8.13939 12.1923 10.1304 11.3677C12.1214 10.543 14.2553 10.1185 16.4104 10.1185C18.5654 10.1185 20.6994 10.543 22.6903 11.3677C24.6813 12.1923 26.4904 13.4011 28.0143 14.925C29.5381 16.4488 30.7468 18.2579 31.5715 20.2489C31.9264 21.1053 32.2069 21.9882 32.4119 22.8878C32.5118 21.18 32.3382 19.4623 31.8932 17.8007C31.2566 15.4258 30.0826 13.2292 28.4615 11.3808C26.8405 9.53226 24.8159 8.08147 22.5444 7.14063ZM6.50209 32.2652C6.78347 26.9317 11.1974 22.6935 16.6012 22.6935C21.7961 22.6935 26.0762 26.6103 26.6493 31.652C26.7708 31.4091 26.8838 31.1618 26.988 30.9102C27.5634 29.5212 27.8595 28.0324 27.8595 26.5289C27.8595 25.0254 27.5634 23.5366 26.988 22.1475C26.4126 20.7584 25.5693 19.4963 24.5061 18.4331C23.443 17.37 22.1808 16.5267 20.7917 15.9513C19.4027 15.3759 17.9139 15.0798 16.4104 15.0798C14.9069 15.0798 13.4181 15.3759 12.029 15.9513C10.6399 16.5267 9.3778 17.37 8.31464 18.4331C7.25151 19.4963 6.40817 20.7584 5.83278 22.1475C5.25742 23.5366 4.96127 25.0253 4.96127 26.5289C4.96127 28.0324 5.25742 29.5212 5.83278 30.9102C6.02623 31.3772 6.24991 31.8298 6.50209 32.2652ZM21.7533 32.8068C21.7533 35.6523 19.4466 37.9589 16.6012 37.9589C13.7558 37.9589 11.4491 35.6523 11.4491 32.8068C11.4491 29.9615 13.7558 27.6548 16.6012 27.6548C19.4466 27.6548 21.7533 29.9615 21.7533 32.8068Z" fill="#0090F1"/>
<path d="M55.1573 36.1691C60.7259 36.1691 64.8736 33.5192 64.8736 28.6035C64.8736 23.995 61.6092 22.0363 56.8087 20.9226L53.89 20.2313C51.2017 19.6169 49.5503 18.9256 49.5503 17.0438C49.5503 15.546 50.9712 14.7011 52.9298 14.7011C55.887 14.7011 58.8825 16.1605 60.5723 18.8488L64.2975 14.6627C62.1469 11.5904 58.2681 9.74695 53.4291 9.74695C48.2061 9.74695 43.8664 12.3968 43.8664 17.4278C43.8664 22.3052 47.63 24.0718 51.6241 24.8783L54.1204 25.4159C57.5384 26.1072 59.2282 26.7601 59.2282 28.7571C59.2282 30.5237 57.6152 31.215 55.3877 31.215C52.3154 31.215 48.5902 29.794 46.862 26.5681L43.252 30.7925C45.633 34.5562 50.2031 36.1691 55.1573 36.1691Z" fill="white"/>
<path d="M74.5863 36.1691C78.4267 36.1691 79.8093 33.596 80.347 30.6389V42.9283H85.8388V16.967H80.347V22.1131C79.7709 19.156 78.2347 16.5445 74.3559 16.5445C70.0162 16.5445 67.1359 20.1161 67.1359 26.376C67.1359 32.5975 70.0162 36.1691 74.5863 36.1691ZM72.7429 26.376C72.7429 22.8044 74.3175 20.8458 76.8138 20.8458C79.118 20.8458 80.347 22.2668 80.347 25.3391V27.3745C80.347 30.4469 79.118 31.9063 76.8138 31.9063C74.3175 31.9063 72.7429 29.9476 72.7429 26.376Z" fill="white"/>
<path d="M95.418 36.1691C99.22 36.1691 101.025 33.5192 101.678 30.5237V35.7851H107.17V16.967H101.678V27.3745C101.678 30.4469 100.871 31.9063 98.2599 31.9063C95.7252 31.9063 95.1107 30.4853 95.1107 28.181V16.967H89.6189V30.1013C89.6189 33.9801 91.8464 36.1691 95.418 36.1691Z" fill="white"/>
<path d="M119.756 36.1691C123.981 36.1691 126.515 34.3257 127.936 32.2903L124.595 28.9491C123.904 30.5621 122.483 31.7142 119.833 31.7142C117.375 31.7142 115.608 30.4469 115.263 27.797H128.09C128.205 27.3745 128.282 26.2992 128.282 25.4927C128.282 20.577 125.286 16.5829 119.295 16.5829C113.765 16.5829 110.117 20.577 110.117 26.376C110.117 32.1751 113.765 36.1691 119.756 36.1691ZM119.334 20.8074C121.792 20.8074 123.136 22.1516 123.328 24.6478H115.263C115.532 22.1131 116.991 20.8074 119.334 20.8074Z" fill="white"/>
<path d="M135.51 36.2075C139.35 36.2075 141.002 33.3656 141.616 30.9077V32.1751C141.616 34.8634 143.459 35.7851 145.495 35.7851H148.721V31.407H147.607C146.916 31.407 146.609 31.1382 146.609 30.2933V23.8413C146.609 19.1176 143.843 16.5829 139.081 16.5829C135.049 16.5829 131.938 18.4647 130.056 20.5002L132.821 24.4942C134.127 22.6124 136.316 21.2683 138.697 21.2683C140.771 21.2683 141.501 22.1516 141.693 23.7261L135.932 25.8768C132.361 27.1057 130.556 28.7571 130.556 31.599C130.556 34.633 132.591 36.2075 135.51 36.2075ZM135.625 30.7925C135.625 30.0628 136.124 29.5252 137.622 28.9107L141.616 27.2593V28.5651C141.616 30.8693 140.157 32.1751 137.545 32.1751C136.239 32.1751 135.625 31.6758 135.625 30.7925Z" fill="white"/>
<path d="M156.808 35.7851V30.4469L159.381 27.7586L164.143 35.7851H170.403L163.068 24.4942L170.441 16.967H163.951L159.995 21.0378L156.539 25.1855L156.808 20.2697V10.0542H151.316V35.7851H156.808Z" fill="white"/>
<path d="M176.218 42.6979C179.751 42.6979 182.094 41.1233 183.553 36.9372L190.312 16.967H184.129L181.479 25.8384L180.058 32.1367L178.676 25.8384L175.988 16.967H169.92L176.026 34.5562H179.367L178.983 35.5547C178.369 37.3597 177.524 37.8589 176.064 37.8589C174.413 37.8589 173.03 36.8988 171.84 35.5163L169.651 40.1248C170.957 41.4689 173.376 42.6979 176.218 42.6979Z" fill="white"/>
</svg>
