<svg width="191" height="42" viewBox="0 0 191 42" fill="none" xmlns="http://www.w3.org/2000/svg">
<path fill-rule="evenodd" clip-rule="evenodd" d="M22.5444 6.1814C20.2729 5.24051 17.8155 4.83479 15.3622 4.99558C12.9088 5.1564 10.5253 5.87941 8.39612 7.1087L6.24781 8.34902L3.76717 4.05244L5.91548 2.81212C8.70375 1.20234 11.825 0.255498 15.0377 0.0449493C18.2504 -0.165638 21.4685 0.365676 24.443 1.59775C27.4175 2.82986 30.0688 4.72969 32.1916 7.15033C34.3143 9.57094 35.8519 12.4475 36.6854 15.5574C37.5185 18.6673 37.6254 21.9272 36.9972 25.085C36.369 28.2427 35.023 31.2137 33.0629 33.7679C31.1028 36.3222 28.5817 38.3915 25.6941 39.8154C22.8066 41.2392 19.082 41.98 16.4105 41.98C13.7389 41.98 12.179 41.5793 10.1304 40.7309C8.13939 39.9062 6.33036 38.6975 4.80648 37.1737C3.28265 35.6498 2.07389 33.8405 1.24917 31.8495C0.424495 29.8586 0 27.7247 0 25.5696C0 23.4146 0.424495 21.2807 1.24917 19.2897C2.07389 17.2987 3.28265 15.4896 4.80648 13.9657C6.33036 12.4419 8.13939 11.2331 10.1304 10.4084C12.1214 9.58372 14.2553 9.15927 16.4104 9.15927C18.5654 9.15927 20.6994 9.58372 22.6903 10.4084C24.6813 11.2331 26.4904 12.4419 28.0143 13.9657C29.5381 15.4896 30.7468 17.2987 31.5715 19.2897C31.9264 20.1461 32.2069 21.0289 32.4119 21.9286C32.5118 20.2207 32.3382 18.5031 31.8932 16.8415C31.2566 14.4666 30.0826 12.27 28.4615 10.4215C26.8405 8.57304 24.8159 7.12225 22.5444 6.1814ZM6.50209 31.306C6.78347 25.9725 11.1974 21.7343 16.6012 21.7343C21.7961 21.7343 26.0762 25.6511 26.6493 30.6927C26.7708 30.4499 26.8838 30.2025 26.988 29.951C27.5634 28.5619 27.8595 27.0732 27.8595 25.5696C27.8595 24.0661 27.5634 22.5773 26.988 21.1883C26.4126 19.7992 25.5693 18.5371 24.5061 17.4739C23.443 16.4107 22.1808 15.5674 20.7917 14.992C19.4027 14.4167 17.9139 14.1205 16.4104 14.1205C14.9069 14.1205 13.4181 14.4167 12.029 14.992C10.6399 15.5674 9.3778 16.4107 8.31464 17.4739C7.25151 18.5371 6.40817 19.7992 5.83278 21.1883C5.25742 22.5773 4.96127 24.0661 4.96127 25.5696C4.96127 27.0732 5.25742 28.5619 5.83278 29.951C6.02623 30.418 6.24991 30.8706 6.50209 31.306ZM21.7533 31.8476C21.7533 34.693 19.4466 36.9996 16.6012 36.9996C13.7558 36.9996 11.4491 34.693 11.4491 31.8476C11.4491 29.0022 13.7558 26.6955 16.6012 26.6955C19.4466 26.6955 21.7533 29.0022 21.7533 31.8476Z" fill="#0090F1"/>
<path d="M55.1573 35.2099C60.7259 35.2099 64.8736 32.56 64.8736 27.6443C64.8736 23.0357 61.6092 21.0771 56.8087 19.9634L53.89 19.2721C51.2017 18.6576 49.5503 17.9664 49.5503 16.0845C49.5503 14.5868 50.9712 13.7419 52.9298 13.7419C55.887 13.7419 58.8825 15.2012 60.5723 17.8896L64.2975 13.7035C62.1469 10.6311 58.2681 8.78772 53.4291 8.78772C48.2061 8.78772 43.8664 11.4376 43.8664 16.4686C43.8664 21.3459 47.63 23.1125 51.6241 23.919L54.1204 24.4567C57.5384 25.148 59.2282 25.8008 59.2282 27.7979C59.2282 29.5645 57.6152 30.2558 55.3877 30.2558C52.3154 30.2558 48.5902 28.8348 46.862 25.6088L43.252 29.8333C45.633 33.5969 50.2031 35.2099 55.1573 35.2099Z" fill="#001E33"/>
<path d="M74.5863 35.2099C78.4267 35.2099 79.8093 32.6368 80.347 29.6797V41.9691H85.8388V16.0077H80.347V21.1539C79.7709 18.1968 78.2347 15.5853 74.3559 15.5853C70.0162 15.5853 67.1359 19.1569 67.1359 25.4168C67.1359 31.6383 70.0162 35.2099 74.5863 35.2099ZM72.7429 25.4168C72.7429 21.8452 74.3175 19.8866 76.8138 19.8866C79.118 19.8866 80.347 21.3075 80.347 24.3799V26.4153C80.347 29.4877 79.118 30.947 76.8138 30.947C74.3175 30.947 72.7429 28.9884 72.7429 25.4168Z" fill="#001E33"/>
<path d="M95.418 35.2099C99.22 35.2099 101.025 32.56 101.678 29.5645V34.8259H107.17V16.0077H101.678V26.4153C101.678 29.4877 100.871 30.947 98.2599 30.947C95.7252 30.947 95.1107 29.5261 95.1107 27.2218V16.0077H89.6189V29.142C89.6189 33.0209 91.8464 35.2099 95.418 35.2099Z" fill="#001E33"/>
<path d="M119.756 35.2099C123.981 35.2099 126.515 33.3665 127.936 31.3311L124.595 27.9899C123.904 29.6029 122.483 30.755 119.833 30.755C117.375 30.755 115.608 29.4877 115.263 26.8378H128.09C128.205 26.4153 128.282 25.34 128.282 24.5335C128.282 19.6177 125.286 15.6237 119.295 15.6237C113.765 15.6237 110.117 19.6177 110.117 25.4168C110.117 31.2159 113.765 35.2099 119.756 35.2099ZM119.334 19.8482C121.792 19.8482 123.136 21.1923 123.328 23.6886H115.263C115.532 21.1539 116.991 19.8482 119.334 19.8482Z" fill="#001E33"/>
<path d="M135.51 35.2483C139.35 35.2483 141.002 32.4064 141.616 29.9485V31.2159C141.616 33.9042 143.459 34.8259 145.495 34.8259H148.721V30.4478H147.607C146.916 30.4478 146.609 30.1789 146.609 29.334V22.8821C146.609 18.1584 143.843 15.6237 139.081 15.6237C135.049 15.6237 131.938 17.5055 130.056 19.5409L132.821 23.535C134.127 21.6532 136.316 20.309 138.697 20.309C140.771 20.309 141.501 21.1923 141.693 22.7669L135.932 24.9175C132.361 26.1465 130.556 27.7979 130.556 30.6398C130.556 33.6737 132.591 35.2483 135.51 35.2483ZM135.625 29.8333C135.625 29.1036 136.124 28.566 137.622 27.9515L141.616 26.3001V27.6059C141.616 29.9101 140.157 31.2159 137.545 31.2159C136.239 31.2159 135.625 30.7166 135.625 29.8333Z" fill="#001E33"/>
<path d="M156.808 34.8259V29.4877L159.381 26.7994L164.143 34.8259H170.403L163.068 23.535L170.441 16.0077H163.951L159.995 20.0786L156.539 24.2263L156.808 19.3105V9.09496H151.316V34.8259H156.808Z" fill="#001E33"/>
<path d="M176.218 41.7387C179.751 41.7387 182.094 40.1641 183.553 35.978L190.312 16.0077H184.129L181.479 24.8791L180.058 31.1775L178.676 24.8791L175.988 16.0077H169.92L176.026 33.5969H179.367L178.983 34.5954C178.369 36.4004 177.524 36.8997 176.064 36.8997C174.413 36.8997 173.03 35.9396 171.84 34.557L169.651 39.1656C170.957 40.5097 173.376 41.7387 176.218 41.7387Z" fill="#001E33"/>
</svg>
